<svg t="1673097025491" class="icon" viewBox="0 0 1024 1024" version="1.1" xmlns="http://www.w3.org/2000/svg" p-id="9110" width="200" height="200"><path d="M0 0m178.086957 0l667.826086 0q178.086957 0 178.086957 178.086957l0 667.826086q0 178.086957-178.086957 178.086957l-667.826086 0q-178.086957 0-178.086957-178.086957l0-667.826086q0-178.086957 178.086957-178.086957Z" fill="#43B36B" p-id="9111"></path><path d="M692.179478 252.282435c38.956522 0 70.789565 30.208 72.926609 68.251826l0.111304 4.096v361.73913c0 38.578087-30.497391 70.121739-68.897391 72.236522l-4.140522 0.111304H351.276522c-38.956522 0-70.789565-30.185739-72.926609-68.229565l-0.111304-4.118261v-361.73913c0-38.578087 30.497391-70.099478 68.897391-72.236522l4.140522-0.111304h340.880695z m-73.060174 233.73913c-5.342609 0-10.573913 0.378435-15.693913 1.113044a11.575652 11.575652 0 0 0-9.349565 8.236521c-3.33913 10.818783-10.462609 20.457739-20.880696 26.557218-10.351304 6.099478-22.082783 7.568696-32.901565 5.12a11.419826 11.419826 0 0 0-11.664695 4.140522 117.092174 117.092174 0 0 0-15.805218 27.67026 11.909565 11.909565 0 0 0 2.337391 12.421566c7.524174 8.325565 12.109913 19.411478 12.109914 31.610434a46.970435 46.970435 0 0 1-12.109914 31.610435 11.909565 11.909565 0 0 0-2.337391 12.443826c4.006957 9.99513 9.349565 19.277913 15.805218 27.670261 2.760348 3.584 7.301565 5.12 11.664695 4.118261a44.966957 44.966957 0 0 1 32.901565 5.12c10.418087 6.121739 17.541565 15.738435 20.858435 26.557217a11.575652 11.575652 0 0 0 9.349565 8.258783 112.417391 112.417391 0 0 0 31.432348 0 11.575652 11.575652 0 0 0 9.349565-8.258783c3.33913-10.818783 10.462609-20.435478 20.880696-26.534956a44.966957 44.966957 0 0 1 32.901565-5.12c4.36313 0.957217 8.904348-0.556522 11.664696-4.140522 6.455652-8.392348 11.798261-17.67513 15.805217-27.670261a11.909565 11.909565 0 0 0-2.337391-12.421565 46.970435 46.970435 0 0 1-12.109913-31.610435c0-12.221217 4.585739-23.30713 12.109913-31.632695a11.909565 11.909565 0 0 0 2.337391-12.421566 117.092174 117.092174 0 0 0-15.805217-27.67026 11.419826 11.419826 0 0 0-11.664696-4.118261 45.011478 45.011478 0 0 1-32.901565-5.12 46.413913 46.413913 0 0 1-20.858435-26.557218 11.575652 11.575652 0 0 0-9.349565-8.258782 112.417391 112.417391 0 0 0-15.738435-1.113044z m0 75.976348c22.194087 0 40.20313 18.320696 40.203131 40.893217 0 22.594783-18.009043 40.915478-40.18087 40.915479-22.194087 0-40.20313-18.320696-40.20313-40.915479 0-22.572522 18.009043-40.893217 40.180869-40.893217z m-173.812869-98.704696H370.42087a31.654957 31.654957 0 0 0-3.027479 63.176348l3.027479 0.133565h74.885565a31.654957 31.654957 0 0 0 0-63.309913z m158.831304-126.597565H371.021913a31.654957 31.654957 0 0 0-3.049739 63.154087l3.049739 0.155826H604.16a31.654957 31.654957 0 0 0 0-63.309913z" fill="#FFFFFF" p-id="9112"></path></svg>
